<mxfile host="app.diagrams.net" modified="2022-12-19T08:08:15.671Z" agent="5.0 (Windows NT 10.0; Win64; x64) AppleWebKit/537.36 (KHTML, like Gecko) Chrome/108.0.0.0 Safari/537.36" etag="1uL85CafY3EnJf1RrAaC" version="20.5.3" type="github">
  <diagram id="9H7ylQ0CBS7OcGbB-OY6" name="第 1 页">
    <mxGraphModel dx="1046" dy="490" grid="0" gridSize="10" guides="1" tooltips="1" connect="1" arrows="1" fold="1" page="1" pageScale="1" pageWidth="3300" pageHeight="4681" math="0" shadow="0">
      <root>
        <mxCell id="0" />
        <mxCell id="1" parent="0" />
        <mxCell id="XTFeWGf_-osxXNOz8sGO-1" value="&lt;font style=&quot;font-size: 24px;&quot;&gt;&lt;b&gt;20221219调价流程&lt;/b&gt;&lt;/font&gt;" style="text;html=1;strokeColor=none;fillColor=none;align=center;verticalAlign=middle;whiteSpace=wrap;rounded=0;" parent="1" vertex="1">
          <mxGeometry x="1327" y="251" width="297" height="30" as="geometry" />
        </mxCell>
        <mxCell id="XTFeWGf_-osxXNOz8sGO-26" value="" style="endArrow=classic;html=1;rounded=0;" parent="1" edge="1">
          <mxGeometry width="50" height="50" relative="1" as="geometry">
            <mxPoint x="1467.7333881445747" y="410.51307066916814" as="sourcePoint" />
            <mxPoint x="1377.9541029207232" y="480.1013133208255" as="targetPoint" />
          </mxGeometry>
        </mxCell>
        <mxCell id="XTFeWGf_-osxXNOz8sGO-27" value="小于等于90天" style="edgeLabel;html=1;align=center;verticalAlign=middle;resizable=0;points=[];" parent="XTFeWGf_-osxXNOz8sGO-26" vertex="1" connectable="0">
          <mxGeometry x="0.441" y="-5" relative="1" as="geometry">
            <mxPoint y="1" as="offset" />
          </mxGeometry>
        </mxCell>
        <mxCell id="XTFeWGf_-osxXNOz8sGO-28" value="&lt;font style=&quot;font-size: 18px;&quot;&gt;预警车源&lt;/font&gt;" style="rounded=1;whiteSpace=wrap;html=1;" parent="1" vertex="1">
          <mxGeometry x="1361.806675938804" y="382" width="228.73368567454796" height="28.517823639774857" as="geometry" />
        </mxCell>
        <mxCell id="XTFeWGf_-osxXNOz8sGO-29" value="" style="endArrow=classic;html=1;rounded=0;" parent="1" edge="1">
          <mxGeometry width="50" height="50" relative="1" as="geometry">
            <mxPoint x="1478.4983394658543" y="410.5130706691683" as="sourcePoint" />
            <mxPoint x="1560.9582753824757" y="480.1013133208255" as="targetPoint" />
          </mxGeometry>
        </mxCell>
        <mxCell id="XTFeWGf_-osxXNOz8sGO-30" value="大于90天" style="edgeLabel;html=1;align=center;verticalAlign=middle;resizable=0;points=[];" parent="XTFeWGf_-osxXNOz8sGO-29" vertex="1" connectable="0">
          <mxGeometry x="0.441" y="-5" relative="1" as="geometry">
            <mxPoint y="-7" as="offset" />
          </mxGeometry>
        </mxCell>
        <mxCell id="XTFeWGf_-osxXNOz8sGO-31" value="&lt;font style=&quot;font-size: 18px;&quot;&gt;车型性价比模型&lt;/font&gt;" style="rounded=1;whiteSpace=wrap;html=1;" parent="1" vertex="1">
          <mxGeometry x="1241.2392211404729" y="484.6641651031895" width="228.73368567454796" height="28.517823639774857" as="geometry" />
        </mxCell>
        <mxCell id="XTFeWGf_-osxXNOz8sGO-32" value="&lt;font style=&quot;font-size: 18px;&quot;&gt;同基本配置车系模型&lt;/font&gt;" style="rounded=1;whiteSpace=wrap;html=1;" parent="1" vertex="1">
          <mxGeometry x="1521.1279554937414" y="484.6641651031895" width="244.3643949930459" height="28.517823639774857" as="geometry" />
        </mxCell>
        <mxCell id="XTFeWGf_-osxXNOz8sGO-33" value="" style="endArrow=classic;html=1;rounded=0;" parent="1" target="XTFeWGf_-osxXNOz8sGO-36" edge="1">
          <mxGeometry width="50" height="50" relative="1" as="geometry">
            <mxPoint x="1378.3842921779544" y="515.4586616635397" as="sourcePoint" />
            <mxPoint x="1435.0083449235049" y="589.609756097561" as="targetPoint" />
          </mxGeometry>
        </mxCell>
        <mxCell id="XTFeWGf_-osxXNOz8sGO-34" value="" style="endArrow=classic;html=1;rounded=0;entryX=0.5;entryY=0;entryDx=0;entryDy=0;" parent="1" target="XTFeWGf_-osxXNOz8sGO-35" edge="1">
          <mxGeometry width="50" height="50" relative="1" as="geometry">
            <mxPoint x="1633.0830404394287" y="513.1772357723578" as="sourcePoint" />
            <mxPoint x="1515.7454798331014" y="587.328330206379" as="targetPoint" />
          </mxGeometry>
        </mxCell>
        <mxCell id="XTFeWGf_-osxXNOz8sGO-35" value="&lt;font style=&quot;font-size: 18px;&quot;&gt;参考数据量&lt;/font&gt;" style="rounded=1;whiteSpace=wrap;html=1;" parent="1" vertex="1">
          <mxGeometry x="1538.35" y="557.67" width="244.36" height="30.33" as="geometry" />
        </mxCell>
        <mxCell id="XTFeWGf_-osxXNOz8sGO-36" value="&lt;font style=&quot;font-size: 18px;&quot;&gt;首先判断线索增量&amp;nbsp; &amp;amp;&amp;nbsp;&lt;/font&gt;&lt;span style=&quot;font-size: 18px;&quot;&gt;参考数据量&amp;nbsp;&amp;nbsp;&lt;/span&gt;" style="rounded=1;whiteSpace=wrap;html=1;" parent="1" vertex="1">
          <mxGeometry x="1069" y="557.6697936210131" width="413.3741307371349" height="28.517823639774857" as="geometry" />
        </mxCell>
        <mxCell id="XTFeWGf_-osxXNOz8sGO-37" value="&lt;span style=&quot;font-size: 18px;&quot;&gt;40%性价比&amp;nbsp;&amp;nbsp;&lt;/span&gt;" style="rounded=1;whiteSpace=wrap;html=1;" parent="1" vertex="1">
          <mxGeometry x="1173.4200278164117" y="616.4165103189493" width="167.93324061196105" height="21.673545966228893" as="geometry" />
        </mxCell>
        <mxCell id="XTFeWGf_-osxXNOz8sGO-39" value="&lt;span style=&quot;font-size: 18px;&quot;&gt;连续30天未调减15%&lt;/span&gt;" style="rounded=1;whiteSpace=wrap;html=1;" parent="1" vertex="1">
          <mxGeometry x="1173.4200278164117" y="671.7410881801126" width="200.2280945757997" height="21.673545966228893" as="geometry" />
        </mxCell>
        <mxCell id="XTFeWGf_-osxXNOz8sGO-40" value="" style="edgeStyle=orthogonalEdgeStyle;rounded=0;orthogonalLoop=1;jettySize=auto;html=1;fontSize=18;" parent="1" source="XTFeWGf_-osxXNOz8sGO-36" target="XTFeWGf_-osxXNOz8sGO-39" edge="1">
          <mxGeometry relative="1" as="geometry" />
        </mxCell>
        <mxCell id="XTFeWGf_-osxXNOz8sGO-41" value="&lt;span style=&quot;font-size: 18px;&quot;&gt;连续30天未调减15%&lt;/span&gt;" style="rounded=1;whiteSpace=wrap;html=1;" parent="1" vertex="1">
          <mxGeometry x="1561.9100278164115" y="746.5639399624765" width="200.2280945757997" height="21.673545966228893" as="geometry" />
        </mxCell>
        <mxCell id="XTFeWGf_-osxXNOz8sGO-43" value="&lt;span style=&quot;font-size: 18px;&quot;&gt;是否超限（采购总成本）&lt;/span&gt;" style="rounded=1;whiteSpace=wrap;html=1;" parent="1" vertex="1">
          <mxGeometry x="1161.578581363004" y="736.7617260787993" width="223.91098748261473" height="21.673545966228893" as="geometry" />
        </mxCell>
        <mxCell id="XTFeWGf_-osxXNOz8sGO-44" value="" style="edgeStyle=orthogonalEdgeStyle;rounded=0;orthogonalLoop=1;jettySize=auto;html=1;fontSize=18;" parent="1" source="XTFeWGf_-osxXNOz8sGO-39" target="XTFeWGf_-osxXNOz8sGO-43" edge="1">
          <mxGeometry relative="1" as="geometry" />
        </mxCell>
        <mxCell id="XTFeWGf_-osxXNOz8sGO-45" value="&lt;span style=&quot;font-size: 18px;&quot;&gt;是否超限&lt;/span&gt;&lt;br&gt;&lt;font style=&quot;font-size: 12px;&quot;&gt;&quot;0-5w(含)&quot;: 0.1, &quot;05-10w(含)&quot;: 0.25, &quot;10-15w(含)&quot;: 0.4, &quot;15-20w(含)&quot;: 0.45, &quot;20-30w(含)&quot;: 0.55, &quot;30w以上&quot;: 0.65&lt;/font&gt;&lt;br&gt;&lt;br&gt;&quot;0-5w(含)&quot;: 0.2, &quot;05-10w(含)&quot;: 0.35, &quot;10-15w(含)&quot;: 0.5, &quot;15-20w(含)&quot;: 0.65, &quot;20-30w(含)&quot;: 0.8, &quot;30w以上&quot;: 1.2" style="rounded=1;whiteSpace=wrap;html=1;" parent="1" vertex="1">
          <mxGeometry x="1558.5405980528508" y="802.4588742964352" width="206.95618915159943" height="169.96622889305814" as="geometry" />
        </mxCell>
        <mxCell id="XTFeWGf_-osxXNOz8sGO-46" value="" style="edgeStyle=orthogonalEdgeStyle;rounded=0;orthogonalLoop=1;jettySize=auto;html=1;fontSize=18;" parent="1" source="XTFeWGf_-osxXNOz8sGO-41" target="XTFeWGf_-osxXNOz8sGO-45" edge="1">
          <mxGeometry relative="1" as="geometry" />
        </mxCell>
        <mxCell id="XTFeWGf_-osxXNOz8sGO-47" value="&lt;span style=&quot;font-size: 18px;&quot;&gt;过滤封店、瓜子活动车&lt;/span&gt;" style="rounded=1;whiteSpace=wrap;html=1;" parent="1" vertex="1">
          <mxGeometry x="1314.540792767733" y="1018.5621763602251" width="241.13490959666203" height="28.517823639774857" as="geometry" />
        </mxCell>
        <mxCell id="XTFeWGf_-osxXNOz8sGO-48" value="" style="endArrow=classic;html=1;rounded=0;exitX=0.5;exitY=1;exitDx=0;exitDy=0;" parent="1" source="XTFeWGf_-osxXNOz8sGO-43" target="XTFeWGf_-osxXNOz8sGO-47" edge="1">
          <mxGeometry width="50" height="50" relative="1" as="geometry">
            <mxPoint x="1254.0740751043113" y="716.9952720450281" as="sourcePoint" />
            <mxPoint x="1423.0838108484004" y="959.96712945591" as="targetPoint" />
          </mxGeometry>
        </mxCell>
        <mxCell id="XTFeWGf_-osxXNOz8sGO-49" value="" style="endArrow=classic;html=1;rounded=0;entryX=0.558;entryY=0.03;entryDx=0;entryDy=0;entryPerimeter=0;exitX=0.5;exitY=1;exitDx=0;exitDy=0;" parent="1" target="XTFeWGf_-osxXNOz8sGO-47" edge="1" source="XTFeWGf_-osxXNOz8sGO-45">
          <mxGeometry width="50" height="50" relative="1" as="geometry">
            <mxPoint x="1636.5631517050751" y="860.7203502188868" as="sourcePoint" />
            <mxPoint x="1559.797385246514" y="902.9314821763603" as="targetPoint" />
          </mxGeometry>
        </mxCell>
        <mxCell id="AEneihulK7k6ly92K3hE-4" value="&lt;span style=&quot;font-size: 18px;&quot;&gt;线索增量 | 性价比30%&amp;nbsp;&amp;nbsp;&lt;br&gt;二者满足其一则不调&lt;br&gt;&lt;/span&gt;" style="whiteSpace=wrap;html=1;rounded=1;" vertex="1" parent="1">
          <mxGeometry x="1450" y="647" width="200" height="60" as="geometry" />
        </mxCell>
        <mxCell id="AEneihulK7k6ly92K3hE-5" value="&lt;font style=&quot;font-size: 18px;&quot;&gt;线索增量 &amp;amp; 性价比20%&amp;nbsp;&lt;br&gt;二者都满足则不调&lt;br&gt;&lt;/font&gt;" style="whiteSpace=wrap;html=1;rounded=1;" vertex="1" parent="1">
          <mxGeometry x="1718" y="647" width="206" height="62" as="geometry" />
        </mxCell>
        <mxCell id="AEneihulK7k6ly92K3hE-6" value="" style="endArrow=classic;html=1;rounded=0;exitX=0.5;exitY=1;exitDx=0;exitDy=0;entryX=0.5;entryY=0;entryDx=0;entryDy=0;" edge="1" parent="1" source="XTFeWGf_-osxXNOz8sGO-35" target="AEneihulK7k6ly92K3hE-4">
          <mxGeometry width="50" height="50" relative="1" as="geometry">
            <mxPoint x="1664.9133881445746" y="605.7030706691683" as="sourcePoint" />
            <mxPoint x="1575.1341029207229" y="675.2913133208256" as="targetPoint" />
          </mxGeometry>
        </mxCell>
        <mxCell id="AEneihulK7k6ly92K3hE-10" value="90-150天" style="edgeLabel;html=1;align=center;verticalAlign=middle;resizable=0;points=[];fontSize=18;" vertex="1" connectable="0" parent="AEneihulK7k6ly92K3hE-6">
          <mxGeometry x="0.3413" y="-2" relative="1" as="geometry">
            <mxPoint x="18" y="-9" as="offset" />
          </mxGeometry>
        </mxCell>
        <mxCell id="AEneihulK7k6ly92K3hE-8" value="" style="endArrow=classic;html=1;rounded=0;entryX=0.5;entryY=0;entryDx=0;entryDy=0;" edge="1" parent="1" target="AEneihulK7k6ly92K3hE-5">
          <mxGeometry width="50" height="50" relative="1" as="geometry">
            <mxPoint x="1661" y="588" as="sourcePoint" />
            <mxPoint x="1573.7649999999999" y="632" as="targetPoint" />
          </mxGeometry>
        </mxCell>
        <mxCell id="AEneihulK7k6ly92K3hE-11" value="150天以上" style="edgeLabel;html=1;align=center;verticalAlign=middle;resizable=0;points=[];fontSize=18;" vertex="1" connectable="0" parent="AEneihulK7k6ly92K3hE-8">
          <mxGeometry x="-0.2289" y="2" relative="1" as="geometry">
            <mxPoint x="9" y="4" as="offset" />
          </mxGeometry>
        </mxCell>
        <mxCell id="AEneihulK7k6ly92K3hE-14" value="" style="endArrow=classic;html=1;rounded=0;exitX=0.5;exitY=1;exitDx=0;exitDy=0;entryX=0.5;entryY=0;entryDx=0;entryDy=0;" edge="1" parent="1" source="AEneihulK7k6ly92K3hE-4" target="XTFeWGf_-osxXNOz8sGO-41">
          <mxGeometry width="50" height="50" relative="1" as="geometry">
            <mxPoint x="1512.5730404394287" y="751.9972357723577" as="sourcePoint" />
            <mxPoint x="1808.49" y="770.8199999999999" as="targetPoint" />
          </mxGeometry>
        </mxCell>
        <mxCell id="AEneihulK7k6ly92K3hE-15" value="" style="endArrow=classic;html=1;rounded=0;entryX=0.5;entryY=0;entryDx=0;entryDy=0;" edge="1" parent="1" source="AEneihulK7k6ly92K3hE-5" target="XTFeWGf_-osxXNOz8sGO-41">
          <mxGeometry width="50" height="50" relative="1" as="geometry">
            <mxPoint x="1819" y="707" as="sourcePoint" />
            <mxPoint x="1958.4840751043112" y="788.0039399624766" as="targetPoint" />
          </mxGeometry>
        </mxCell>
      </root>
    </mxGraphModel>
  </diagram>
</mxfile>
